<?xml version="1.0" ?><!DOCTYPE svg  PUBLIC '-//W3C//DTD SVG 1.1//EN'  'http://www.w3.org/Graphics/SVG/1.1/DTD/svg11.dtd'><svg enable-background="new 0 0 512 512" id="Layer_1"  width="40px" height="40px" version="1.1" viewBox="0 0 512 512" xml:space="preserve" xmlns="http://www.w3.org/2000/svg" xmlns:xlink="http://www.w3.org/1999/xlink"><g><path d="M256.4,74.2c22.7,0,45.3-0.4,68,0.1c28.8,0.6,57.6,1.7,86.3,3c11.9,0.6,24,0.9,35.8,3.2   c28.1,5.4,44.8,22.7,52.5,50c4.1,14.5,5.6,29.4,6.9,44.3c3.5,40.1,2.8,80.2,1.8,120.3c-0.6,23.7-1.6,47.6-7.6,70.8   c-2.5,9.5-5.4,19-10.9,27.3c-10,15.1-24.4,23.7-42,26.9c-15.1,2.8-30.4,3.1-45.7,3.8c-28.3,1.3-56.6,1.9-84.9,2.6   c-33.5,0.9-67,0.7-100.4,0.4c-27.1-0.3-54.3-0.9-81.4-2c-22.9-0.9-45.9-1.3-68.5-5.7c-12.5-2.4-23.6-7.6-33.2-16.2   c-9-8.2-13.6-18.8-17-30c-7.3-24-7.8-48.8-9.3-73.6c-1.7-29-1.2-58-0.5-86.9c0.6-24.4,1.7-48.9,6.8-72.9c3-14.2,7.1-28.3,17.4-39.2   c12.7-13.4,28.9-19.8,47.2-21.1c21.9-1.5,43.9-2.5,65.8-3.4C181.1,74.3,218.8,73.8,256.4,74.2z M339.5,245.4   c-0.4-1.2-1.5-1.4-2.3-1.8c-23.5-12.4-47.1-24.8-70.7-37.2c-18.7-9.8-37.4-19.7-56.1-29.6c-5.2-2.7-5.3-2.6-5.3,3.4   c0,43.1,0,86.2,0,129.4c0,0.8,0,1.7,0,2.5c-0.1,2.6,0.9,3.4,3.3,2.1c2.9-1.6,5.8-3.2,8.8-4.8c39.4-20.4,78.9-40.9,118.3-61.3   C336.9,247.3,338.7,247,339.5,245.4z" fill="#fff"/></g></svg>